<mxfile host="app.diagrams.net" modified="2021-03-30T16:52:07.564Z" agent="5.0 (Windows NT 10.0; Win64; x64) AppleWebKit/537.36 (KHTML, like Gecko) Chrome/89.0.4389.90 Safari/537.36" etag="8vnSEsFYvl55tR-vBxMH" version="14.5.3" type="github">
  <diagram id="C5RBs43oDa-KdzZeNtuy" name="Page-1">
    <mxGraphModel dx="833" dy="593" grid="1" gridSize="10" guides="1" tooltips="1" connect="1" arrows="1" fold="1" page="1" pageScale="1" pageWidth="1300" pageHeight="1300" background="none" math="0" shadow="0">
      <root>
        <mxCell id="WIyWlLk6GJQsqaUBKTNV-0" />
        <mxCell id="WIyWlLk6GJQsqaUBKTNV-1" parent="WIyWlLk6GJQsqaUBKTNV-0" />
        <mxCell id="O79oeAFL2QF2HTidsIBU-59" style="edgeStyle=orthogonalEdgeStyle;rounded=0;orthogonalLoop=1;jettySize=auto;html=1;exitX=0.5;exitY=1;exitDx=0;exitDy=0;entryX=0.5;entryY=0;entryDx=0;entryDy=0;" edge="1" parent="WIyWlLk6GJQsqaUBKTNV-1" source="O79oeAFL2QF2HTidsIBU-7" target="O79oeAFL2QF2HTidsIBU-33">
          <mxGeometry relative="1" as="geometry" />
        </mxCell>
        <mxCell id="O79oeAFL2QF2HTidsIBU-7" value="Klant" style="shape=table;html=1;whiteSpace=wrap;startSize=40;container=1;collapsible=0;childLayout=tableLayout;fixedRows=1;rowLines=0;fontStyle=1;align=center;" vertex="1" parent="WIyWlLk6GJQsqaUBKTNV-1">
          <mxGeometry x="140" y="120" width="180" height="170" as="geometry" />
        </mxCell>
        <mxCell id="O79oeAFL2QF2HTidsIBU-8" value="" style="shape=partialRectangle;html=1;whiteSpace=wrap;collapsible=0;dropTarget=0;pointerEvents=0;fillColor=none;top=0;left=0;bottom=1;right=0;points=[[0,0.5],[1,0.5]];portConstraint=eastwest;" vertex="1" parent="O79oeAFL2QF2HTidsIBU-7">
          <mxGeometry y="40" width="180" height="40" as="geometry" />
        </mxCell>
        <mxCell id="O79oeAFL2QF2HTidsIBU-9" value="1" style="shape=partialRectangle;html=1;whiteSpace=wrap;connectable=0;fillColor=none;top=0;left=0;bottom=0;right=0;overflow=hidden;" vertex="1" parent="O79oeAFL2QF2HTidsIBU-8">
          <mxGeometry width="40" height="40" as="geometry" />
        </mxCell>
        <mxCell id="O79oeAFL2QF2HTidsIBU-10" value="id" style="shape=partialRectangle;html=1;whiteSpace=wrap;connectable=0;fillColor=none;top=0;left=0;bottom=0;right=0;align=left;spacingLeft=6;overflow=hidden;" vertex="1" parent="O79oeAFL2QF2HTidsIBU-8">
          <mxGeometry x="40" width="140" height="40" as="geometry" />
        </mxCell>
        <mxCell id="O79oeAFL2QF2HTidsIBU-11" value="" style="shape=partialRectangle;html=1;whiteSpace=wrap;collapsible=0;dropTarget=0;pointerEvents=0;fillColor=none;top=0;left=0;bottom=0;right=0;points=[[0,0.5],[1,0.5]];portConstraint=eastwest;" vertex="1" parent="O79oeAFL2QF2HTidsIBU-7">
          <mxGeometry y="80" width="180" height="30" as="geometry" />
        </mxCell>
        <mxCell id="O79oeAFL2QF2HTidsIBU-12" value="2" style="shape=partialRectangle;html=1;whiteSpace=wrap;connectable=0;fillColor=none;top=0;left=0;bottom=0;right=0;overflow=hidden;" vertex="1" parent="O79oeAFL2QF2HTidsIBU-11">
          <mxGeometry width="40" height="30" as="geometry" />
        </mxCell>
        <mxCell id="O79oeAFL2QF2HTidsIBU-13" value="Naam" style="shape=partialRectangle;html=1;whiteSpace=wrap;connectable=0;fillColor=none;top=0;left=0;bottom=0;right=0;align=left;spacingLeft=6;overflow=hidden;" vertex="1" parent="O79oeAFL2QF2HTidsIBU-11">
          <mxGeometry x="40" width="140" height="30" as="geometry" />
        </mxCell>
        <mxCell id="O79oeAFL2QF2HTidsIBU-14" value="" style="shape=partialRectangle;html=1;whiteSpace=wrap;collapsible=0;dropTarget=0;pointerEvents=0;fillColor=none;top=0;left=0;bottom=0;right=0;points=[[0,0.5],[1,0.5]];portConstraint=eastwest;" vertex="1" parent="O79oeAFL2QF2HTidsIBU-7">
          <mxGeometry y="110" width="180" height="30" as="geometry" />
        </mxCell>
        <mxCell id="O79oeAFL2QF2HTidsIBU-15" value="3" style="shape=partialRectangle;html=1;whiteSpace=wrap;connectable=0;fillColor=none;top=0;left=0;bottom=0;right=0;overflow=hidden;" vertex="1" parent="O79oeAFL2QF2HTidsIBU-14">
          <mxGeometry width="40" height="30" as="geometry" />
        </mxCell>
        <mxCell id="O79oeAFL2QF2HTidsIBU-16" value="Telefoonnummer" style="shape=partialRectangle;html=1;whiteSpace=wrap;connectable=0;fillColor=none;top=0;left=0;bottom=0;right=0;align=left;spacingLeft=6;overflow=hidden;" vertex="1" parent="O79oeAFL2QF2HTidsIBU-14">
          <mxGeometry x="40" width="140" height="30" as="geometry" />
        </mxCell>
        <mxCell id="O79oeAFL2QF2HTidsIBU-17" value="" style="shape=partialRectangle;html=1;whiteSpace=wrap;collapsible=0;dropTarget=0;pointerEvents=0;fillColor=none;top=0;left=0;bottom=0;right=0;points=[[0,0.5],[1,0.5]];portConstraint=eastwest;" vertex="1" parent="O79oeAFL2QF2HTidsIBU-7">
          <mxGeometry y="140" width="180" height="30" as="geometry" />
        </mxCell>
        <mxCell id="O79oeAFL2QF2HTidsIBU-18" value="4" style="shape=partialRectangle;html=1;whiteSpace=wrap;connectable=0;fillColor=none;top=0;left=0;bottom=0;right=0;overflow=hidden;" vertex="1" parent="O79oeAFL2QF2HTidsIBU-17">
          <mxGeometry width="40" height="30" as="geometry" />
        </mxCell>
        <mxCell id="O79oeAFL2QF2HTidsIBU-19" value="Adres" style="shape=partialRectangle;html=1;whiteSpace=wrap;connectable=0;fillColor=none;top=0;left=0;bottom=0;right=0;align=left;spacingLeft=6;overflow=hidden;" vertex="1" parent="O79oeAFL2QF2HTidsIBU-17">
          <mxGeometry x="40" width="140" height="30" as="geometry" />
        </mxCell>
        <mxCell id="O79oeAFL2QF2HTidsIBU-20" value="Producten" style="shape=table;html=1;whiteSpace=wrap;startSize=40;container=1;collapsible=0;childLayout=tableLayout;fixedRows=1;rowLines=0;fontStyle=1;align=center;" vertex="1" parent="WIyWlLk6GJQsqaUBKTNV-1">
          <mxGeometry x="440" y="120" width="160" height="170" as="geometry" />
        </mxCell>
        <mxCell id="O79oeAFL2QF2HTidsIBU-21" value="" style="shape=partialRectangle;html=1;whiteSpace=wrap;collapsible=0;dropTarget=0;pointerEvents=0;fillColor=none;top=0;left=0;bottom=1;right=0;points=[[0,0.5],[1,0.5]];portConstraint=eastwest;" vertex="1" parent="O79oeAFL2QF2HTidsIBU-20">
          <mxGeometry y="40" width="160" height="40" as="geometry" />
        </mxCell>
        <mxCell id="O79oeAFL2QF2HTidsIBU-22" value="1" style="shape=partialRectangle;html=1;whiteSpace=wrap;connectable=0;fillColor=none;top=0;left=0;bottom=0;right=0;overflow=hidden;" vertex="1" parent="O79oeAFL2QF2HTidsIBU-21">
          <mxGeometry width="36" height="40" as="geometry" />
        </mxCell>
        <mxCell id="O79oeAFL2QF2HTidsIBU-23" value="id" style="shape=partialRectangle;html=1;whiteSpace=wrap;connectable=0;fillColor=none;top=0;left=0;bottom=0;right=0;align=left;spacingLeft=6;overflow=hidden;" vertex="1" parent="O79oeAFL2QF2HTidsIBU-21">
          <mxGeometry x="36" width="124" height="40" as="geometry" />
        </mxCell>
        <mxCell id="O79oeAFL2QF2HTidsIBU-24" value="" style="shape=partialRectangle;html=1;whiteSpace=wrap;collapsible=0;dropTarget=0;pointerEvents=0;fillColor=none;top=0;left=0;bottom=0;right=0;points=[[0,0.5],[1,0.5]];portConstraint=eastwest;" vertex="1" parent="O79oeAFL2QF2HTidsIBU-20">
          <mxGeometry y="80" width="160" height="30" as="geometry" />
        </mxCell>
        <mxCell id="O79oeAFL2QF2HTidsIBU-25" value="2" style="shape=partialRectangle;html=1;whiteSpace=wrap;connectable=0;fillColor=none;top=0;left=0;bottom=0;right=0;overflow=hidden;" vertex="1" parent="O79oeAFL2QF2HTidsIBU-24">
          <mxGeometry width="36" height="30" as="geometry" />
        </mxCell>
        <mxCell id="O79oeAFL2QF2HTidsIBU-26" value="Naam" style="shape=partialRectangle;html=1;whiteSpace=wrap;connectable=0;fillColor=none;top=0;left=0;bottom=0;right=0;align=left;spacingLeft=6;overflow=hidden;" vertex="1" parent="O79oeAFL2QF2HTidsIBU-24">
          <mxGeometry x="36" width="124" height="30" as="geometry" />
        </mxCell>
        <mxCell id="O79oeAFL2QF2HTidsIBU-27" value="" style="shape=partialRectangle;html=1;whiteSpace=wrap;collapsible=0;dropTarget=0;pointerEvents=0;fillColor=none;top=0;left=0;bottom=0;right=0;points=[[0,0.5],[1,0.5]];portConstraint=eastwest;" vertex="1" parent="O79oeAFL2QF2HTidsIBU-20">
          <mxGeometry y="110" width="160" height="30" as="geometry" />
        </mxCell>
        <mxCell id="O79oeAFL2QF2HTidsIBU-28" value="3" style="shape=partialRectangle;html=1;whiteSpace=wrap;connectable=0;fillColor=none;top=0;left=0;bottom=0;right=0;overflow=hidden;" vertex="1" parent="O79oeAFL2QF2HTidsIBU-27">
          <mxGeometry width="36" height="30" as="geometry" />
        </mxCell>
        <mxCell id="O79oeAFL2QF2HTidsIBU-29" value="Omschrijving" style="shape=partialRectangle;html=1;whiteSpace=wrap;connectable=0;fillColor=none;top=0;left=0;bottom=0;right=0;align=left;spacingLeft=6;overflow=hidden;" vertex="1" parent="O79oeAFL2QF2HTidsIBU-27">
          <mxGeometry x="36" width="124" height="30" as="geometry" />
        </mxCell>
        <mxCell id="O79oeAFL2QF2HTidsIBU-30" value="" style="shape=partialRectangle;html=1;whiteSpace=wrap;collapsible=0;dropTarget=0;pointerEvents=0;fillColor=none;top=0;left=0;bottom=0;right=0;points=[[0,0.5],[1,0.5]];portConstraint=eastwest;" vertex="1" parent="O79oeAFL2QF2HTidsIBU-20">
          <mxGeometry y="140" width="160" height="30" as="geometry" />
        </mxCell>
        <mxCell id="O79oeAFL2QF2HTidsIBU-31" value="3" style="shape=partialRectangle;html=1;whiteSpace=wrap;connectable=0;fillColor=none;top=0;left=0;bottom=0;right=0;overflow=hidden;" vertex="1" parent="O79oeAFL2QF2HTidsIBU-30">
          <mxGeometry width="36" height="30" as="geometry" />
        </mxCell>
        <mxCell id="O79oeAFL2QF2HTidsIBU-32" value="Prijs" style="shape=partialRectangle;html=1;whiteSpace=wrap;connectable=0;fillColor=none;top=0;left=0;bottom=0;right=0;align=left;spacingLeft=6;overflow=hidden;" vertex="1" parent="O79oeAFL2QF2HTidsIBU-30">
          <mxGeometry x="36" width="124" height="30" as="geometry" />
        </mxCell>
        <mxCell id="O79oeAFL2QF2HTidsIBU-33" value="Bestelling" style="shape=table;html=1;whiteSpace=wrap;startSize=40;container=1;collapsible=0;childLayout=tableLayout;fixedRows=1;rowLines=0;fontStyle=1;align=center;" vertex="1" parent="WIyWlLk6GJQsqaUBKTNV-1">
          <mxGeometry x="140" y="360" width="180" height="140" as="geometry" />
        </mxCell>
        <mxCell id="O79oeAFL2QF2HTidsIBU-34" value="" style="shape=partialRectangle;html=1;whiteSpace=wrap;collapsible=0;dropTarget=0;pointerEvents=0;fillColor=none;top=0;left=0;bottom=1;right=0;points=[[0,0.5],[1,0.5]];portConstraint=eastwest;" vertex="1" parent="O79oeAFL2QF2HTidsIBU-33">
          <mxGeometry y="40" width="180" height="40" as="geometry" />
        </mxCell>
        <mxCell id="O79oeAFL2QF2HTidsIBU-35" value="1" style="shape=partialRectangle;html=1;whiteSpace=wrap;connectable=0;fillColor=none;top=0;left=0;bottom=0;right=0;overflow=hidden;" vertex="1" parent="O79oeAFL2QF2HTidsIBU-34">
          <mxGeometry width="40" height="40" as="geometry" />
        </mxCell>
        <mxCell id="O79oeAFL2QF2HTidsIBU-36" value="id" style="shape=partialRectangle;html=1;whiteSpace=wrap;connectable=0;fillColor=none;top=0;left=0;bottom=0;right=0;align=left;spacingLeft=6;overflow=hidden;" vertex="1" parent="O79oeAFL2QF2HTidsIBU-34">
          <mxGeometry x="40" width="140" height="40" as="geometry" />
        </mxCell>
        <mxCell id="O79oeAFL2QF2HTidsIBU-37" value="" style="shape=partialRectangle;html=1;whiteSpace=wrap;collapsible=0;dropTarget=0;pointerEvents=0;fillColor=none;top=0;left=0;bottom=0;right=0;points=[[0,0.5],[1,0.5]];portConstraint=eastwest;" vertex="1" parent="O79oeAFL2QF2HTidsIBU-33">
          <mxGeometry y="80" width="180" height="30" as="geometry" />
        </mxCell>
        <mxCell id="O79oeAFL2QF2HTidsIBU-38" value="2" style="shape=partialRectangle;html=1;whiteSpace=wrap;connectable=0;fillColor=none;top=0;left=0;bottom=0;right=0;overflow=hidden;" vertex="1" parent="O79oeAFL2QF2HTidsIBU-37">
          <mxGeometry width="40" height="30" as="geometry" />
        </mxCell>
        <mxCell id="O79oeAFL2QF2HTidsIBU-39" value="Klant_id" style="shape=partialRectangle;html=1;whiteSpace=wrap;connectable=0;fillColor=none;top=0;left=0;bottom=0;right=0;align=left;spacingLeft=6;overflow=hidden;" vertex="1" parent="O79oeAFL2QF2HTidsIBU-37">
          <mxGeometry x="40" width="140" height="30" as="geometry" />
        </mxCell>
        <mxCell id="O79oeAFL2QF2HTidsIBU-40" value="" style="shape=partialRectangle;html=1;whiteSpace=wrap;collapsible=0;dropTarget=0;pointerEvents=0;fillColor=none;top=0;left=0;bottom=0;right=0;points=[[0,0.5],[1,0.5]];portConstraint=eastwest;" vertex="1" parent="O79oeAFL2QF2HTidsIBU-33">
          <mxGeometry y="110" width="180" height="30" as="geometry" />
        </mxCell>
        <mxCell id="O79oeAFL2QF2HTidsIBU-41" value="3" style="shape=partialRectangle;html=1;whiteSpace=wrap;connectable=0;fillColor=none;top=0;left=0;bottom=0;right=0;overflow=hidden;" vertex="1" parent="O79oeAFL2QF2HTidsIBU-40">
          <mxGeometry width="40" height="30" as="geometry" />
        </mxCell>
        <mxCell id="O79oeAFL2QF2HTidsIBU-42" value="created_at" style="shape=partialRectangle;html=1;whiteSpace=wrap;connectable=0;fillColor=none;top=0;left=0;bottom=0;right=0;align=left;spacingLeft=6;overflow=hidden;" vertex="1" parent="O79oeAFL2QF2HTidsIBU-40">
          <mxGeometry x="40" width="140" height="30" as="geometry" />
        </mxCell>
        <mxCell id="O79oeAFL2QF2HTidsIBU-43" value="rel_best_product" style="shape=table;html=1;whiteSpace=wrap;startSize=40;container=1;collapsible=0;childLayout=tableLayout;fixedRows=1;rowLines=0;fontStyle=1;align=center;" vertex="1" parent="WIyWlLk6GJQsqaUBKTNV-1">
          <mxGeometry x="440" y="360" width="160" height="170" as="geometry" />
        </mxCell>
        <mxCell id="O79oeAFL2QF2HTidsIBU-44" value="" style="shape=partialRectangle;html=1;whiteSpace=wrap;collapsible=0;dropTarget=0;pointerEvents=0;fillColor=none;top=0;left=0;bottom=1;right=0;points=[[0,0.5],[1,0.5]];portConstraint=eastwest;" vertex="1" parent="O79oeAFL2QF2HTidsIBU-43">
          <mxGeometry y="40" width="160" height="40" as="geometry" />
        </mxCell>
        <mxCell id="O79oeAFL2QF2HTidsIBU-45" value="1" style="shape=partialRectangle;html=1;whiteSpace=wrap;connectable=0;fillColor=none;top=0;left=0;bottom=0;right=0;overflow=hidden;" vertex="1" parent="O79oeAFL2QF2HTidsIBU-44">
          <mxGeometry width="36" height="40" as="geometry" />
        </mxCell>
        <mxCell id="O79oeAFL2QF2HTidsIBU-46" value="id" style="shape=partialRectangle;html=1;whiteSpace=wrap;connectable=0;fillColor=none;top=0;left=0;bottom=0;right=0;align=left;spacingLeft=6;overflow=hidden;" vertex="1" parent="O79oeAFL2QF2HTidsIBU-44">
          <mxGeometry x="36" width="124" height="40" as="geometry" />
        </mxCell>
        <mxCell id="O79oeAFL2QF2HTidsIBU-50" value="" style="shape=partialRectangle;html=1;whiteSpace=wrap;collapsible=0;dropTarget=0;pointerEvents=0;fillColor=none;top=0;left=0;bottom=0;right=0;points=[[0,0.5],[1,0.5]];portConstraint=eastwest;" vertex="1" parent="O79oeAFL2QF2HTidsIBU-43">
          <mxGeometry y="80" width="160" height="30" as="geometry" />
        </mxCell>
        <mxCell id="O79oeAFL2QF2HTidsIBU-51" value="2" style="shape=partialRectangle;html=1;whiteSpace=wrap;connectable=0;fillColor=none;top=0;left=0;bottom=0;right=0;overflow=hidden;" vertex="1" parent="O79oeAFL2QF2HTidsIBU-50">
          <mxGeometry width="36" height="30" as="geometry" />
        </mxCell>
        <mxCell id="O79oeAFL2QF2HTidsIBU-52" value="bestelling_id" style="shape=partialRectangle;html=1;whiteSpace=wrap;connectable=0;fillColor=none;top=0;left=0;bottom=0;right=0;align=left;spacingLeft=6;overflow=hidden;" vertex="1" parent="O79oeAFL2QF2HTidsIBU-50">
          <mxGeometry x="36" width="124" height="30" as="geometry" />
        </mxCell>
        <mxCell id="O79oeAFL2QF2HTidsIBU-47" value="" style="shape=partialRectangle;html=1;whiteSpace=wrap;collapsible=0;dropTarget=0;pointerEvents=0;fillColor=none;top=0;left=0;bottom=0;right=0;points=[[0,0.5],[1,0.5]];portConstraint=eastwest;" vertex="1" parent="O79oeAFL2QF2HTidsIBU-43">
          <mxGeometry y="110" width="160" height="30" as="geometry" />
        </mxCell>
        <mxCell id="O79oeAFL2QF2HTidsIBU-48" value="3" style="shape=partialRectangle;html=1;whiteSpace=wrap;connectable=0;fillColor=none;top=0;left=0;bottom=0;right=0;overflow=hidden;" vertex="1" parent="O79oeAFL2QF2HTidsIBU-47">
          <mxGeometry width="36" height="30" as="geometry" />
        </mxCell>
        <mxCell id="O79oeAFL2QF2HTidsIBU-49" value="product_id" style="shape=partialRectangle;html=1;whiteSpace=wrap;connectable=0;fillColor=none;top=0;left=0;bottom=0;right=0;align=left;spacingLeft=6;overflow=hidden;" vertex="1" parent="O79oeAFL2QF2HTidsIBU-47">
          <mxGeometry x="36" width="124" height="30" as="geometry" />
        </mxCell>
        <mxCell id="O79oeAFL2QF2HTidsIBU-53" value="" style="shape=partialRectangle;html=1;whiteSpace=wrap;collapsible=0;dropTarget=0;pointerEvents=0;fillColor=none;top=0;left=0;bottom=0;right=0;points=[[0,0.5],[1,0.5]];portConstraint=eastwest;" vertex="1" parent="O79oeAFL2QF2HTidsIBU-43">
          <mxGeometry y="140" width="160" height="30" as="geometry" />
        </mxCell>
        <mxCell id="O79oeAFL2QF2HTidsIBU-54" value="4" style="shape=partialRectangle;html=1;whiteSpace=wrap;connectable=0;fillColor=none;top=0;left=0;bottom=0;right=0;overflow=hidden;" vertex="1" parent="O79oeAFL2QF2HTidsIBU-53">
          <mxGeometry width="36" height="30" as="geometry" />
        </mxCell>
        <mxCell id="O79oeAFL2QF2HTidsIBU-55" value="aantal" style="shape=partialRectangle;html=1;whiteSpace=wrap;connectable=0;fillColor=none;top=0;left=0;bottom=0;right=0;align=left;spacingLeft=6;overflow=hidden;" vertex="1" parent="O79oeAFL2QF2HTidsIBU-53">
          <mxGeometry x="36" width="124" height="30" as="geometry" />
        </mxCell>
        <mxCell id="O79oeAFL2QF2HTidsIBU-56" value="" style="endArrow=classic;startArrow=classic;html=1;exitX=0.998;exitY=0.137;exitDx=0;exitDy=0;exitPerimeter=0;entryX=-0.012;entryY=0.105;entryDx=0;entryDy=0;entryPerimeter=0;" edge="1" parent="WIyWlLk6GJQsqaUBKTNV-1" source="O79oeAFL2QF2HTidsIBU-33" target="O79oeAFL2QF2HTidsIBU-43">
          <mxGeometry width="50" height="50" relative="1" as="geometry">
            <mxPoint x="520" y="430" as="sourcePoint" />
            <mxPoint x="570" y="380" as="targetPoint" />
          </mxGeometry>
        </mxCell>
        <mxCell id="O79oeAFL2QF2HTidsIBU-60" value="Heeft" style="text;html=1;strokeColor=none;fillColor=none;align=center;verticalAlign=middle;whiteSpace=wrap;rounded=0;" vertex="1" parent="WIyWlLk6GJQsqaUBKTNV-1">
          <mxGeometry x="210" y="310" width="80" height="20" as="geometry" />
        </mxCell>
        <mxCell id="O79oeAFL2QF2HTidsIBU-61" value="1" style="text;html=1;strokeColor=none;fillColor=none;align=center;verticalAlign=middle;whiteSpace=wrap;rounded=0;" vertex="1" parent="WIyWlLk6GJQsqaUBKTNV-1">
          <mxGeometry x="220" y="290" width="40" height="20" as="geometry" />
        </mxCell>
        <mxCell id="O79oeAFL2QF2HTidsIBU-62" value="*" style="text;html=1;strokeColor=none;fillColor=none;align=center;verticalAlign=middle;whiteSpace=wrap;rounded=0;" vertex="1" parent="WIyWlLk6GJQsqaUBKTNV-1">
          <mxGeometry x="220" y="340" width="40" height="20" as="geometry" />
        </mxCell>
        <mxCell id="O79oeAFL2QF2HTidsIBU-64" value="linkt" style="text;html=1;strokeColor=none;fillColor=none;align=center;verticalAlign=middle;whiteSpace=wrap;rounded=0;" vertex="1" parent="WIyWlLk6GJQsqaUBKTNV-1">
          <mxGeometry x="360" y="360" width="40" height="20" as="geometry" />
        </mxCell>
        <mxCell id="O79oeAFL2QF2HTidsIBU-65" value="linkt" style="text;html=1;strokeColor=none;fillColor=none;align=center;verticalAlign=middle;whiteSpace=wrap;rounded=0;" vertex="1" parent="WIyWlLk6GJQsqaUBKTNV-1">
          <mxGeometry x="520" y="310" width="40" height="20" as="geometry" />
        </mxCell>
        <mxCell id="O79oeAFL2QF2HTidsIBU-66" value="" style="endArrow=classic;startArrow=classic;html=1;exitX=0.5;exitY=0;exitDx=0;exitDy=0;entryX=0.504;entryY=1.107;entryDx=0;entryDy=0;entryPerimeter=0;" edge="1" parent="WIyWlLk6GJQsqaUBKTNV-1" source="O79oeAFL2QF2HTidsIBU-43" target="O79oeAFL2QF2HTidsIBU-30">
          <mxGeometry width="50" height="50" relative="1" as="geometry">
            <mxPoint x="600" y="377" as="sourcePoint" />
            <mxPoint x="510" y="310" as="targetPoint" />
          </mxGeometry>
        </mxCell>
      </root>
    </mxGraphModel>
  </diagram>
</mxfile>
